<?xml version="1.0" encoding="UTF-8" standalone="no"?>
<!DOCTYPE svg PUBLIC "-//W3C//DTD SVG 1.1//EN" "http://www.w3.org/Graphics/SVG/1.1/DTD/svg11.dtd">
<svg xmlns="http://www.w3.org/2000/svg" version="1.1" viewBox="0.00 0.00 1920.00 60.00">
<path fill="#ff0000" d="
  M 1920.00 58.01
  L 1920.00 60.00
  L 1776.96 60.00
  Q 1719.24 32.88 1661.44 6.02
  Q 1659.25 5.00 1656.84 5.00
  Q 959.78 4.99 262.72 5.01
  Q 260.31 5.01 258.12 6.02
  Q 201.60 32.13 144.96 57.99
  Q 142.75 59.00 140.31 59.00
  Q 70.16 59.01 0.00 58.98
  L 0.00 57.01
  Q 70.03 56.98 140.06 57.01
  Q 142.50 57.01 144.71 55.99
  Q 201.26 30.00 257.86 4.01
  Q 260.06 3.00 262.49 3.00
  Q 959.92 3.00 1657.34 3.00
  Q 1659.75 3.00 1661.94 4.02
  Q 1718.69 30.43 1775.38 56.97
  Q 1777.56 57.98 1779.96 57.98
  Q 1849.98 58.01 1920.00 58.01
  Z"
/>
</svg>
